<mxfile host="app.diagrams.net" agent="Mozilla/5.0 (Windows NT 10.0; Win64; x64) AppleWebKit/537.36 (KHTML, like Gecko) Chrome/132.0.0.0 Safari/537.36" version="26.0.11">
  <diagram name="Página-1" id="leSzvwTRpq9kYCKlYFkV">
    <mxGraphModel dx="875" dy="464" grid="1" gridSize="10" guides="1" tooltips="1" connect="1" arrows="1" fold="1" page="1" pageScale="1" pageWidth="827" pageHeight="1169" math="0" shadow="0">
      <root>
        <mxCell id="0" />
        <mxCell id="1" parent="0" />
        <mxCell id="3U9CnM1GlSTkCTV_rLdj-3" value="" style="edgeStyle=orthogonalEdgeStyle;rounded=0;orthogonalLoop=1;jettySize=auto;html=1;entryX=0.5;entryY=0;entryDx=0;entryDy=0;" edge="1" parent="1" source="3U9CnM1GlSTkCTV_rLdj-1" target="3U9CnM1GlSTkCTV_rLdj-8">
          <mxGeometry relative="1" as="geometry" />
        </mxCell>
        <mxCell id="3U9CnM1GlSTkCTV_rLdj-1" value="Inicio" style="ellipse;whiteSpace=wrap;html=1;" vertex="1" parent="1">
          <mxGeometry x="414" y="20" width="66" height="40" as="geometry" />
        </mxCell>
        <mxCell id="3U9CnM1GlSTkCTV_rLdj-5" value="" style="edgeStyle=orthogonalEdgeStyle;rounded=0;orthogonalLoop=1;jettySize=auto;html=1;" edge="1" parent="1" source="3U9CnM1GlSTkCTV_rLdj-2" target="3U9CnM1GlSTkCTV_rLdj-4">
          <mxGeometry relative="1" as="geometry" />
        </mxCell>
        <mxCell id="3U9CnM1GlSTkCTV_rLdj-2" value="Solicitar la base" style="whiteSpace=wrap;html=1;" vertex="1" parent="1">
          <mxGeometry x="398.5" y="120" width="98.5" height="30" as="geometry" />
        </mxCell>
        <mxCell id="3U9CnM1GlSTkCTV_rLdj-7" value="" style="edgeStyle=orthogonalEdgeStyle;rounded=0;orthogonalLoop=1;jettySize=auto;html=1;exitX=0.5;exitY=1;exitDx=0;exitDy=0;entryX=0.5;entryY=0;entryDx=0;entryDy=0;" edge="1" parent="1" target="3U9CnM1GlSTkCTV_rLdj-11">
          <mxGeometry relative="1" as="geometry">
            <mxPoint x="447.35" y="200" as="sourcePoint" />
            <mxPoint x="447" y="230" as="targetPoint" />
            <Array as="points">
              <mxPoint x="447" y="220" />
              <mxPoint x="447" y="220" />
            </Array>
          </mxGeometry>
        </mxCell>
        <mxCell id="3U9CnM1GlSTkCTV_rLdj-10" style="edgeStyle=orthogonalEdgeStyle;rounded=0;orthogonalLoop=1;jettySize=auto;html=1;" edge="1" parent="1" source="3U9CnM1GlSTkCTV_rLdj-4">
          <mxGeometry relative="1" as="geometry">
            <mxPoint x="447.75" y="170" as="targetPoint" />
          </mxGeometry>
        </mxCell>
        <mxCell id="3U9CnM1GlSTkCTV_rLdj-4" value="Solicitar la altura" style="whiteSpace=wrap;html=1;" vertex="1" parent="1">
          <mxGeometry x="397.75" y="170" width="100" height="30" as="geometry" />
        </mxCell>
        <mxCell id="3U9CnM1GlSTkCTV_rLdj-9" value="" style="edgeStyle=orthogonalEdgeStyle;rounded=0;orthogonalLoop=1;jettySize=auto;html=1;entryX=0.5;entryY=0;entryDx=0;entryDy=0;" edge="1" parent="1" source="3U9CnM1GlSTkCTV_rLdj-8" target="3U9CnM1GlSTkCTV_rLdj-2">
          <mxGeometry relative="1" as="geometry">
            <mxPoint x="520" y="120" as="targetPoint" />
            <Array as="points" />
          </mxGeometry>
        </mxCell>
        <mxCell id="3U9CnM1GlSTkCTV_rLdj-8" value="Leer" style="shape=parallelogram;perimeter=parallelogramPerimeter;whiteSpace=wrap;html=1;fixedSize=1;" vertex="1" parent="1">
          <mxGeometry x="412" y="80" width="70" height="20" as="geometry" />
        </mxCell>
        <mxCell id="3U9CnM1GlSTkCTV_rLdj-17" value="" style="edgeStyle=orthogonalEdgeStyle;rounded=0;orthogonalLoop=1;jettySize=auto;html=1;exitX=0.489;exitY=0.855;exitDx=0;exitDy=0;exitPerimeter=0;" edge="1" parent="1" source="3U9CnM1GlSTkCTV_rLdj-11" target="3U9CnM1GlSTkCTV_rLdj-14">
          <mxGeometry relative="1" as="geometry">
            <Array as="points">
              <mxPoint x="447" y="283" />
            </Array>
          </mxGeometry>
        </mxCell>
        <mxCell id="3U9CnM1GlSTkCTV_rLdj-11" value="&quot;Calcular el área de la base&quot;" style="shape=document;whiteSpace=wrap;html=1;boundedLbl=1;size=0.3333333333333333;" vertex="1" parent="1">
          <mxGeometry x="397" y="240" width="100" height="50" as="geometry" />
        </mxCell>
        <mxCell id="3U9CnM1GlSTkCTV_rLdj-19" value="" style="edgeStyle=orthogonalEdgeStyle;rounded=0;orthogonalLoop=1;jettySize=auto;html=1;" edge="1" parent="1" source="3U9CnM1GlSTkCTV_rLdj-14" target="3U9CnM1GlSTkCTV_rLdj-18">
          <mxGeometry relative="1" as="geometry" />
        </mxCell>
        <mxCell id="3U9CnM1GlSTkCTV_rLdj-14" value="Área=(1/2)*base*altura" style="rounded=0;whiteSpace=wrap;html=1;" vertex="1" parent="1">
          <mxGeometry x="383.75" y="310" width="128" height="20" as="geometry" />
        </mxCell>
        <mxCell id="3U9CnM1GlSTkCTV_rLdj-21" value="" style="edgeStyle=orthogonalEdgeStyle;rounded=0;orthogonalLoop=1;jettySize=auto;html=1;" edge="1" parent="1" source="3U9CnM1GlSTkCTV_rLdj-18" target="3U9CnM1GlSTkCTV_rLdj-20">
          <mxGeometry relative="1" as="geometry" />
        </mxCell>
        <mxCell id="3U9CnM1GlSTkCTV_rLdj-18" value="Mostrar el resultado" style="whiteSpace=wrap;html=1;rounded=0;" vertex="1" parent="1">
          <mxGeometry x="390.88" y="350" width="112.25" height="20" as="geometry" />
        </mxCell>
        <mxCell id="3U9CnM1GlSTkCTV_rLdj-20" value="Fin" style="ellipse;whiteSpace=wrap;html=1;rounded=0;" vertex="1" parent="1">
          <mxGeometry x="425.5" y="400" width="43" height="20" as="geometry" />
        </mxCell>
      </root>
    </mxGraphModel>
  </diagram>
</mxfile>
